<svg xmlns="http://www.w3.org/2000/svg" version="1.1" xmlns:xlink="http://www.w3.org/1999/xlink" xmlns:svgjs="http://svgjs.dev/svgjs" width="1440" height="560" preserveAspectRatio="none" viewBox="0 0 1440 560">
    <g mask="url(&quot;#SvgjsMask1009&quot;)" fill="none">
        <rect width="1440" height="560" x="0" y="0" fill="#0e2a47"></rect>
        <path d="M246 339L245 77" stroke-width="8" stroke="url(&quot;#SvgjsLinearGradient1010&quot;)" stroke-linecap="round" class="Up"></path>
        <path d="M1186 347L1185 743" stroke-width="6" stroke="url(&quot;#SvgjsLinearGradient1011&quot;)" stroke-linecap="round" class="Down"></path>
        <path d="M1028 457L1027 859" stroke-width="10" stroke="url(&quot;#SvgjsLinearGradient1010&quot;)" stroke-linecap="round" class="Up"></path>
        <path d="M656 441L655 805" stroke-width="6" stroke="url(&quot;#SvgjsLinearGradient1010&quot;)" stroke-linecap="round" class="Up"></path>
        <path d="M28 38L27 319" stroke-width="6" stroke="url(&quot;#SvgjsLinearGradient1011&quot;)" stroke-linecap="round" class="Down"></path>
        <path d="M321 344L320 648" stroke-width="6" stroke="url(&quot;#SvgjsLinearGradient1011&quot;)" stroke-linecap="round" class="Down"></path>
        <path d="M596 384L595 -33" stroke-width="6" stroke="url(&quot;#SvgjsLinearGradient1011&quot;)" stroke-linecap="round" class="Down"></path>
        <path d="M1244 121L1243 497" stroke-width="6" stroke="url(&quot;#SvgjsLinearGradient1011&quot;)" stroke-linecap="round" class="Down"></path>
        <path d="M1145 443L1144 148" stroke-width="10" stroke="url(&quot;#SvgjsLinearGradient1010&quot;)" stroke-linecap="round" class="Up"></path>
        <path d="M350 154L349 337" stroke-width="8" stroke="url(&quot;#SvgjsLinearGradient1010&quot;)" stroke-linecap="round" class="Up"></path>
        <path d="M847 263L846 444" stroke-width="10" stroke="url(&quot;#SvgjsLinearGradient1010&quot;)" stroke-linecap="round" class="Up"></path>
        <path d="M464 311L463 477" stroke-width="8" stroke="url(&quot;#SvgjsLinearGradient1011&quot;)" stroke-linecap="round" class="Down"></path>
        <path d="M1310 16L1309 343" stroke-width="8" stroke="url(&quot;#SvgjsLinearGradient1011&quot;)" stroke-linecap="round" class="Down"></path>
        <path d="M398 126L397 270" stroke-width="10" stroke="url(&quot;#SvgjsLinearGradient1011&quot;)" stroke-linecap="round" class="Down"></path>
        <path d="M1423 39L1422 -324" stroke-width="8" stroke="url(&quot;#SvgjsLinearGradient1011&quot;)" stroke-linecap="round" class="Down"></path>
        <path d="M978 71L977 -246" stroke-width="8" stroke="url(&quot;#SvgjsLinearGradient1011&quot;)" stroke-linecap="round" class="Down"></path>
        <path d="M1283 425L1282 780" stroke-width="6" stroke="url(&quot;#SvgjsLinearGradient1010&quot;)" stroke-linecap="round" class="Up"></path>
        <path d="M581 379L580 624" stroke-width="6" stroke="url(&quot;#SvgjsLinearGradient1011&quot;)" stroke-linecap="round" class="Down"></path>
        <path d="M1220 253L1219 -65" stroke-width="8" stroke="url(&quot;#SvgjsLinearGradient1011&quot;)" stroke-linecap="round" class="Down"></path>
        <path d="M180 258L179 17" stroke-width="6" stroke="url(&quot;#SvgjsLinearGradient1010&quot;)" stroke-linecap="round" class="Up"></path>
        <path d="M1162 204L1161 -182" stroke-width="8" stroke="url(&quot;#SvgjsLinearGradient1010&quot;)" stroke-linecap="round" class="Up"></path>
        <path d="M596 524L595 259" stroke-width="10" stroke="url(&quot;#SvgjsLinearGradient1010&quot;)" stroke-linecap="round" class="Up"></path>
        <path d="M815 62L814 -185" stroke-width="10" stroke="url(&quot;#SvgjsLinearGradient1010&quot;)" stroke-linecap="round" class="Up"></path>
        <path d="M521 423L520 607" stroke-width="10" stroke="url(&quot;#SvgjsLinearGradient1010&quot;)" stroke-linecap="round" class="Up"></path>
        <path d="M262 31L261 -324" stroke-width="8" stroke="url(&quot;#SvgjsLinearGradient1010&quot;)" stroke-linecap="round" class="Up"></path>
        <path d="M834 238L833 -28" stroke-width="10" stroke="url(&quot;#SvgjsLinearGradient1011&quot;)" stroke-linecap="round" class="Down"></path>
        <path d="M1149 554L1148 139" stroke-width="10" stroke="url(&quot;#SvgjsLinearGradient1011&quot;)" stroke-linecap="round" class="Down"></path>
        <path d="M892 115L891 392" stroke-width="6" stroke="url(&quot;#SvgjsLinearGradient1010&quot;)" stroke-linecap="round" class="Up"></path>
        <path d="M578 452L577 250" stroke-width="6" stroke="url(&quot;#SvgjsLinearGradient1010&quot;)" stroke-linecap="round" class="Up"></path>
        <path d="M100 527L99 780" stroke-width="10" stroke="url(&quot;#SvgjsLinearGradient1011&quot;)" stroke-linecap="round" class="Down"></path>
        <path d="M767 473L766 860" stroke-width="10" stroke="url(&quot;#SvgjsLinearGradient1010&quot;)" stroke-linecap="round" class="Up"></path>
        <path d="M191 194L190 598" stroke-width="8" stroke="url(&quot;#SvgjsLinearGradient1010&quot;)" stroke-linecap="round" class="Up"></path>
        <path d="M999 411L998 165" stroke-width="6" stroke="url(&quot;#SvgjsLinearGradient1010&quot;)" stroke-linecap="round" class="Up"></path>
        <path d="M834 537L833 152" stroke-width="10" stroke="url(&quot;#SvgjsLinearGradient1011&quot;)" stroke-linecap="round" class="Down"></path>
        <path d="M1203 69L1202 260" stroke-width="8" stroke="url(&quot;#SvgjsLinearGradient1011&quot;)" stroke-linecap="round" class="Down"></path>
        <path d="M657 280L656 424" stroke-width="10" stroke="url(&quot;#SvgjsLinearGradient1010&quot;)" stroke-linecap="round" class="Up"></path>
    </g>
    <defs>
        <mask id="SvgjsMask1009">
            <rect width="1440" height="560" fill="#ffffff"></rect>
        </mask>
        <linearGradient x1="0%" y1="100%" x2="0%" y2="0%" id="SvgjsLinearGradient1010">
            <stop stop-color="rgba(28, 83, 142, 0)" offset="0"></stop>
            <stop stop-color="#1c538e" offset="1"></stop>
        </linearGradient>
        <linearGradient x1="0%" y1="0%" x2="0%" y2="100%" id="SvgjsLinearGradient1011">
            <stop stop-color="rgba(28, 83, 142, 0)" offset="0"></stop>
            <stop stop-color="#1c538e" offset="1"></stop>
        </linearGradient>
    </defs>
</svg>